:SAMPLES-PER-SECOND 30
:FULLY-SPECIFIED
:DEGREES
63
root  1.63846 39.8891 3.68727 -150.358 -87.3813 146.918
RightUpLeg  -0.964951 -9.3949 -13.2997
RightLeg  2.71504 2.5712 -1.95299
RightFoot  4.67173 -2.13942 15.3552
RightToes  -1.33073e-015 0 -3.6325e-017
Spine  6.53694 -1.14505 0.714905
Spine1  2.05485 -0.413117 -4.53638
HEad  27.7467 15.616 -0.306371
LeftShoulder1  2.50287 -6.76718 -17.7611
LeftArm  -9.66043 8.25584 -53.2103
LeftForeArm  -10.0545 -4.80917 -13.7399
LeftHand  -0.153789 3.15871 7.47983
RightShoulder  2.14087 4.44781 20.5951
RightArm  -11.4911 -10.4526 48.2609
RightForeArm  21.2005 5.83849 12.7326
RightHand  -0.454193 -2.11491 -15.9538
LeftUpLeg  2.02371 9.90385 8.88144
LeftLeg  6.34157 6.44439 2.31088
LeftFoot  -1.15164 1.28969 -14.328
LeftToes  -4.0021e-011 8.38769e-011 -3.99229e-011
64
root  1.61376 39.9448 3.41308 -157.545 -88.367 154.893
RightUpLeg  -0.814732 -9.48557 -12.3655
RightLeg  1.46616 1.48494 -1.28384
RightFoot  5.24973 -2.15751 14.9675
RightToes  -1.33073e-015 0 -3.6325e-017
Spine  5.86679 -1.24261 1.61791
Spine1  1.84313 -0.541855 -4.10639
HEad  22.9618 12.0942 -2.35554
LeftShoulder1  2.60474 -6.79619 -18.7563
LeftArm  -12.5184 9.65604 -53.0618
LeftForeArm  -9.28218 -2.52781 -13.3666
LeftHand  -0.153317 3.01555 6.91608
RightShoulder  1.99695 4.0691 20.0014
RightArm  -10.9175 -9.44948 47.8589
RightForeArm  13.4632 9.05143 11.8135
RightHand  -0.524483 -1.57046 -15.823
LeftUpLeg  1.39669 9.92786 9.76859
LeftLeg  5.46147 5.84175 2.53445
LeftFoot  -0.478905 1.41366 -14.7716
LeftToes  -4.0021e-011 8.38769e-011 -3.99229e-011
65
root  1.59238 39.9937 3.16178 -161.826 -88.8987 159.641
RightUpLeg  -0.571287 -9.80439 -11.9783
RightLeg  0.499607 1.10159 -0.604229
RightFoot  5.6194 -2.16933 14.7357
RightToes  -1.33073e-015 0 -3.6325e-017
Spine  5.46117 -1.19911 2.15496
Spine1  1.75171 -0.511298 -3.72691
HEad  18.3723 8.32916 -3.70954
LeftShoulder1  2.66458 -6.82655 -19.2999
LeftArm  -12.5942 10.8525 -53.3066
LeftForeArm  -2.78233 -1.33418 -13.3571
LeftHand  -0.208101 2.51347 8.06257
RightShoulder  1.8755 3.81186 19.2174
RightArm  -10.4627 -8.27447 47.891
RightForeArm  7.10238 11.3836 10.8992
RightHand  -0.592052 -0.987519 -15.5493
LeftUpLeg  1.41538 9.91626 10.3089
LeftLeg  4.12432 5.53011 2.56318
LeftFoot  0.361369 1.5564 -15.1372
LeftToes  -4.0021e-011 8.38769e-011 -3.99229e-011
66
root  1.57616 40.0284 2.91653 -168.476 -89.1898 166.383
RightUpLeg  -0.239758 -10.0464 -11.6684
RightLeg  0.002356 1.0457 -0.141081
RightFoot  5.63416 -2.12296 14.4165
RightToes  -1.33073e-015 0 -3.6325e-017
Spine  5.40998 -1.06019 2.72256
Spine1  1.6962 -0.310693 -3.65581
HEad  14.469 4.4844 -4.21565
LeftShoulder1  2.70077 -6.95942 -19.3197
LeftArm  -11.5358 11.8943 -53.8298
LeftForeArm  3.71136 -0.787092 -13.7084
LeftHand  -0.226749 2.65407 9.28588
RightShoulder  1.84277 3.78516 18.8313
RightArm  -9.97857 -6.97976 47.7087
RightForeArm  3.39444 12.795 10.2564
RightHand  -0.701405 -0.279964 -15.921
LeftUpLeg  1.93157 10.0732 10.8909
LeftLeg  2.72504 5.21849 2.42225
LeftFoot  1.16301 1.6894 -15.4091
LeftToes  -4.0021e-011 8.38769e-011 -3.99229e-011
67
root  1.56747 40.0291 2.67432 165.904 -89.2768 -167.957
RightUpLeg  -0.206141 -10.0182 -11.0621
RightLeg  0.0559427 0.855564 0.205018
RightFoot  5.42435 -2.04595 14.0739
RightToes  -1.33073e-015 0 -3.6325e-017
Spine  5.46924 -0.869459 3.5508
Spine1  1.56096 -0.015172 -3.91739
HEad  11.4554 1.02806 -4.2489
LeftShoulder1  2.73657 -7.07335 -19.3846
LeftArm  -9.88269 12.6486 -54.1164
LeftForeArm  6.14896 -0.503593 -14.2258
LeftHand  -0.211336 3.01611 9.87461
RightShoulder  1.83378 3.78312 18.7048
RightArm  -9.01764 -5.57231 47.3421
RightForeArm  1.85662 13.7353 9.8399
RightHand  -0.793198 0.110565 -16.7559
LeftUpLeg  2.17532 10.4227 11.7215
LeftLeg  2.07715 4.7933 2.34829
LeftFoot  1.57957 1.78437 -15.7605
LeftToes  -4.0021e-011 8.38769e-011 -3.99229e-011
68
root  1.57167 40.0295 2.45752 139.328 -88.9889 -141.202
RightUpLeg  -0.410147 -9.75434 -10.2392
RightLeg  0.0765386 0.508209 0.41924
RightFoot  5.38562 -1.99597 13.7691
RightToes  -1.33073e-015 0 -3.6325e-017
Spine  5.45989 -0.62741 4.35446
Spine1  1.32555 0.288851 -4.13836
HEad  9.2219 -1.67468 -4.29839
LeftShoulder1  2.7752 -7.06181 -19.8083
LeftArm  -8.27756 13.1902 -53.9623
LeftForeArm  5.51049 -0.603756 -14.6697
LeftHand  -0.220238 3.16913 11.0036
RightShoulder  1.80004 3.69731 18.5226
RightArm  -7.54074 -4.19153 47.1115
RightForeArm  1.29785 14.593 9.4808
RightHand  -0.804684 -0.0695487 -17.5521
LeftUpLeg  2.17685 10.7574 12.5504
LeftLeg  1.6777 4.53591 2.40331
LeftFoot  1.90267 1.87311 -16.1451
LeftToes  -4.0021e-011 8.38769e-011 -3.99229e-011
